<?xml version="1.0" standalone="no"?>
<!DOCTYPE svg PUBLIC "-//W3C//DTD SVG 20010904//EN"
 "http://www.w3.org/TR/2001/REC-SVG-20010904/DTD/svg10.dtd">
<svg version="1.0" xmlns="http://www.w3.org/2000/svg"
 width="2264.000000pt" height="2264.000000pt" viewBox="0 0 2264.000000 2264.000000"
 preserveAspectRatio="xMidYMid meet">
<metadata>
Created by potrace 1.11, written by Peter Selinger 2001-2013
</metadata>
<g transform="translate(0.000000,2264.000000) scale(0.100000,-0.100000)"
fill="#000000" stroke="none">
<path d="M11127 22124 c-1 -1 -103 -5 -227 -9 -124 -4 -245 -8 -270 -10 -25
-2 -94 -6 -154 -10 -60 -3 -126 -8 -145 -10 -20 -2 -76 -6 -125 -10 -49 -4
-96 -8 -105 -10 -9 -1 -52 -6 -96 -10 -44 -4 -88 -9 -97 -11 -9 -1 -48 -6 -85
-9 -37 -4 -70 -9 -73 -10 -3 -2 -39 -6 -80 -10 -41 -4 -78 -9 -81 -11 -3 -1
-30 -6 -60 -9 -30 -3 -146 -22 -259 -41 -113 -20 -218 -38 -235 -41 -16 -3
-70 -14 -120 -25 -49 -10 -101 -21 -115 -24 -43 -8 -415 -96 -421 -99 -3 -2
-16 -6 -30 -8 -104 -20 -514 -141 -789 -234 -173 -58 -551 -197 -605 -223 -11
-5 -81 -34 -155 -65 -179 -75 -274 -117 -398 -176 -57 -27 -106 -49 -108 -49
-6 0 -315 -155 -469 -235 -475 -248 -968 -556 -1443 -903 -150 -109 -416 -315
-486 -377 -6 -5 -51 -44 -101 -85 -119 -99 -122 -102 -270 -235 -174 -156
-215 -195 -420 -400 -514 -514 -894 -970 -1293 -1555 -107 -157 -332 -506
-332 -516 0 -2 -15 -27 -33 -56 -19 -29 -37 -60 -40 -68 -4 -8 -17 -31 -29
-50 -161 -262 -479 -907 -623 -1260 -25 -63 -52 -128 -60 -145 -7 -16 -45
-120 -85 -230 -40 -110 -76 -209 -81 -220 -25 -62 -194 -631 -214 -719 -2 -11
-9 -41 -16 -66 -6 -25 -12 -53 -14 -63 -2 -9 -11 -45 -20 -80 -9 -34 -19 -75
-22 -92 -2 -16 -8 -46 -13 -65 -11 -40 -55 -266 -64 -325 -4 -22 -8 -47 -11
-55 -2 -8 -6 -33 -9 -55 -4 -22 -8 -51 -11 -65 -2 -14 -7 -43 -10 -65 -3 -22
-7 -47 -10 -55 -2 -8 -6 -40 -10 -71 -3 -31 -7 -65 -9 -75 -2 -11 -7 -48 -11
-84 -3 -36 -8 -72 -10 -80 -2 -8 -7 -44 -10 -80 -3 -36 -7 -81 -10 -100 -7
-63 -14 -143 -20 -220 -3 -41 -8 -97 -10 -125 -26 -321 -26 -1223 0 -1460 2
-22 7 -78 10 -125 4 -47 8 -103 10 -125 2 -22 7 -69 10 -105 3 -36 8 -76 10
-90 2 -14 7 -52 10 -85 3 -33 8 -74 11 -91 3 -17 6 -46 8 -65 4 -36 16 -120
22 -154 2 -11 11 -63 19 -115 8 -52 17 -106 20 -120 3 -14 8 -41 11 -60 3 -19
14 -78 24 -130 11 -52 21 -106 24 -120 2 -14 16 -77 31 -140 15 -63 28 -122
30 -130 2 -8 13 -53 24 -100 12 -47 23 -92 25 -100 8 -33 28 -107 36 -135 5
-16 19 -64 31 -105 261 -915 739 -1946 1288 -2775 58 -88 108 -164 110 -170 2
-5 9 -15 15 -21 6 -7 31 -42 56 -79 174 -257 554 -740 770 -979 19 -22 44 -49
55 -62 228 -256 673 -699 879 -874 16 -14 34 -30 40 -36 28 -26 176 -154 226
-194 30 -25 61 -51 69 -58 20 -19 317 -254 345 -272 12 -8 49 -36 81 -61 114
-87 281 -204 480 -336 110 -73 205 -136 211 -140 5 -5 21 -15 35 -23 13 -8
109 -66 214 -128 179 -108 344 -201 570 -323 106 -56 472 -239 480 -239 2 0
46 -20 97 -44 115 -55 317 -143 423 -186 44 -18 98 -40 120 -50 202 -89 649
-243 1105 -380 229 -69 726 -187 945 -225 17 -3 37 -8 45 -10 8 -2 31 -7 50
-10 37 -6 131 -22 165 -29 84 -16 458 -70 565 -81 25 -3 61 -7 80 -10 19 -3
60 -7 90 -10 30 -3 75 -8 100 -10 48 -5 124 -12 235 -20 39 -4 90 -8 115 -10
39 -3 148 -9 390 -20 88 -4 793 -5 905 0 162 5 359 16 395 20 19 2 82 7 140
11 58 3 112 7 121 9 8 2 55 6 105 10 49 4 97 9 106 10 9 2 48 7 85 10 37 4 75
9 83 10 8 2 44 6 80 10 36 3 72 8 80 10 8 2 39 7 69 10 30 4 63 9 75 11 11 2
38 6 61 9 50 7 201 33 293 50 15 3 43 8 62 11 19 3 89 17 155 31 66 13 131 27
145 29 14 3 63 14 110 25 119 27 120 28 138 33 9 3 31 8 47 11 17 3 80 19 140
35 61 17 120 33 132 35 80 18 634 188 723 223 8 3 17 6 20 7 3 1 12 4 20 8 8
3 62 22 120 43 412 145 891 349 1315 561 273 137 312 157 655 351 43 24 396
241 507 312 l53 33 132 -131 c73 -72 180 -176 238 -232 58 -56 239 -233 404
-394 164 -160 330 -322 370 -360 39 -38 205 -200 369 -360 165 -160 336 -326
380 -369 45 -43 132 -128 194 -189 l112 -110 39 39 c48 47 410 395 497 478 34
33 152 146 261 251 110 106 228 220 264 254 69 66 461 444 620 597 52 51 129
124 170 164 79 75 421 404 547 525 l73 71 -67 66 c-38 36 -91 87 -119 114 -43
40 -254 240 -423 401 -25 24 -110 105 -189 179 -78 75 -159 152 -180 171 -20
19 -116 110 -212 202 -196 187 -318 303 -400 380 -30 29 -122 116 -204 193
-81 78 -194 185 -249 238 l-101 97 29 38 c16 22 32 41 35 44 12 9 248 319 337
442 213 294 436 639 601 928 75 133 104 185 145 262 80 149 243 480 307 623 9
22 24 56 33 76 132 296 334 830 392 1039 2 8 23 76 45 150 36 118 125 451 136
504 2 10 17 77 33 150 17 72 32 145 35 161 3 17 14 75 25 130 10 55 22 118 26
140 32 182 38 221 51 321 2 22 9 66 14 99 5 33 12 92 15 130 4 39 8 77 10 85
3 8 7 44 10 80 3 36 7 88 10 115 2 28 7 88 10 135 4 47 8 99 10 115 24 210 24
1292 0 1436 -2 13 -6 65 -10 114 -3 50 -7 106 -9 125 -3 19 -7 71 -11 115 -3
44 -8 87 -10 95 -2 8 -6 45 -10 82 -3 37 -8 77 -10 90 -2 13 -11 75 -19 138
-9 63 -18 129 -21 145 -11 63 -15 91 -21 135 -3 25 -7 52 -10 60 -3 8 -12 51
-20 95 -7 44 -16 91 -19 105 -3 14 -12 57 -20 95 -8 39 -16 79 -19 90 -2 11
-14 63 -26 115 -12 52 -23 102 -25 110 -17 74 -67 264 -92 350 -9 30 -18 60
-19 65 -10 57 -161 512 -219 665 -20 52 -43 114 -50 136 -7 23 -18 50 -23 60
-6 11 -27 62 -48 114 -20 52 -65 158 -99 235 -259 586 -555 1130 -905 1660
-166 251 -438 621 -612 830 -9 11 -33 40 -53 65 -68 82 -265 311 -299 346 -6
6 -49 53 -96 105 -168 185 -525 536 -755 741 -171 153 -489 417 -625 518 -18
14 -63 48 -99 75 -179 137 -670 475 -690 475 -6 0 -11 5 -11 10 0 6 -5 10 -10
10 -6 0 -23 8 -38 19 -79 54 -526 321 -537 321 -2 0 -30 15 -62 34 -236 136
-715 370 -1068 521 -60 25 -123 53 -140 60 -16 7 -50 21 -75 30 -25 10 -58 23
-75 30 -39 17 -346 135 -365 140 -8 3 -114 38 -235 79 -364 124 -702 219
-1100 310 -133 30 -544 113 -600 120 -22 3 -98 14 -170 25 -71 11 -148 23
-170 26 -22 3 -51 8 -65 10 -14 2 -52 7 -85 11 -33 3 -68 8 -78 10 -10 2 -53
6 -95 9 -42 4 -79 8 -82 10 -3 2 -41 6 -85 10 -44 3 -100 8 -125 10 -114 11
-226 19 -415 30 -167 10 -851 25 -858 19z m558 -3759 c83 -4 163 -8 178 -10
15 -2 70 -6 121 -10 52 -3 103 -8 115 -10 12 -2 48 -6 80 -9 33 -3 74 -8 93
-10 18 -3 69 -10 113 -16 44 -6 91 -13 105 -16 14 -2 52 -9 85 -14 456 -76
942 -208 1371 -373 387 -149 878 -389 1199 -586 39 -24 85 -52 104 -63 52 -30
346 -229 431 -292 41 -30 86 -64 100 -73 40 -29 284 -224 295 -237 6 -6 39
-36 75 -66 103 -87 163 -143 360 -340 212 -212 261 -264 386 -410 87 -103 106
-126 197 -240 75 -96 210 -280 298 -410 85 -124 279 -434 279 -445 0 -3 10
-22 23 -43 56 -89 230 -425 296 -572 64 -142 139 -317 151 -356 7 -22 16 -43
20 -49 11 -14 154 -444 180 -540 45 -169 95 -373 106 -435 3 -14 14 -70 24
-125 11 -55 22 -116 25 -135 2 -19 7 -51 10 -70 72 -451 95 -1030 60 -1480
-11 -149 -15 -196 -20 -230 -2 -19 -7 -60 -10 -90 -4 -30 -8 -67 -11 -81 -2
-15 -6 -47 -9 -70 -3 -24 -8 -55 -10 -69 -6 -40 -36 -213 -40 -240 -3 -14 -21
-95 -40 -180 -20 -85 -38 -163 -40 -172 -8 -38 -58 -217 -77 -278 -145 -472
-340 -921 -587 -1353 -84 -145 -259 -427 -266 -427 -4 0 -183 177 -955 940
-347 344 -722 714 -832 822 l-201 197 -76 -73 c-92 -89 -169 -164 -415 -400
-104 -99 -219 -210 -256 -246 -128 -123 -445 -428 -511 -492 -36 -34 -160
-153 -274 -263 -114 -110 -236 -227 -270 -260 -139 -134 -466 -448 -565 -543
l-105 -102 55 -51 c30 -28 105 -97 165 -154 61 -57 126 -118 146 -136 20 -19
91 -86 159 -149 149 -140 167 -157 315 -295 65 -60 141 -132 169 -158 87 -82
277 -261 305 -286 23 -21 252 -236 321 -301 28 -27 227 -213 316 -295 30 -28
54 -54 54 -57 0 -21 -510 -275 -770 -383 -36 -15 -78 -33 -95 -40 -208 -92
-884 -315 -1060 -349 -11 -2 -47 -11 -80 -19 -58 -15 -317 -68 -400 -82 -22
-4 -49 -9 -60 -10 -11 -2 -69 -11 -130 -20 -60 -9 -121 -18 -135 -20 -14 -2
-52 -6 -85 -10 -33 -3 -71 -7 -85 -10 -14 -2 -63 -7 -110 -10 -47 -4 -101 -8
-120 -10 -220 -23 -885 -23 -1125 -1 -16 2 -66 6 -110 10 -44 4 -96 9 -115 11
-19 2 -62 7 -95 10 -33 3 -71 8 -85 10 -14 2 -47 6 -75 10 -42 5 -131 19 -270
42 -28 4 -254 49 -300 58 -414 88 -963 272 -1395 467 -67 31 -273 127 -290
137 -8 4 -78 41 -155 81 -77 40 -145 77 -151 82 -6 4 -33 20 -60 34 -72 39
-85 47 -131 77 -24 15 -45 27 -47 27 -26 0 -676 444 -716 489 -3 4 -23 19 -45
36 -60 44 -337 277 -413 348 -111 102 -413 406 -498 502 -238 266 -421 503
-624 810 -320 482 -595 1046 -780 1603 -56 169 -112 361 -136 465 -2 9 -6 25
-8 35 -2 9 -13 55 -24 102 -11 47 -30 135 -41 195 -12 61 -23 121 -26 135 -8
42 -44 292 -50 350 -3 30 -7 69 -9 85 -3 17 -7 66 -11 110 -3 44 -8 105 -11
135 -20 255 -20 704 1 960 3 30 7 82 10 115 6 74 15 172 20 205 12 84 15 110
20 150 10 77 55 343 65 380 5 19 11 47 14 62 10 60 40 181 87 354 215 798 607
1591 1137 2304 64 85 122 159 129 163 7 4 13 14 13 22 0 7 4 15 8 17 5 2 49
50 97 108 214 254 567 613 765 776 19 16 46 40 60 53 94 88 463 370 630 482
52 35 97 67 98 71 2 5 8 8 12 8 5 0 60 33 122 73 62 41 125 80 140 88 15 8 69
39 120 69 159 93 492 264 678 348 151 68 378 160 500 204 30 11 64 23 75 28
35 14 137 47 255 83 208 63 255 77 275 81 11 2 58 14 105 26 47 12 94 24 105
26 11 2 30 6 43 9 12 3 34 7 48 10 14 3 56 13 92 21 37 9 80 17 97 19 16 2 84
13 150 25 66 11 131 23 145 25 14 3 50 7 80 11 30 3 64 8 75 10 11 2 49 6 85
9 36 3 76 7 90 10 14 2 59 7 100 10 41 4 100 8 130 11 30 2 129 7 220 10 91 4
166 7 167 8 5 4 408 -2 548 -9z"/>
<path d="M15075 16478 c-77 -28 -196 -70 -265 -93 -69 -24 -156 -55 -195 -69
-38 -13 -162 -57 -275 -96 -352 -123 -403 -141 -470 -165 -36 -13 -164 -58
-285 -100 -121 -43 -303 -106 -405 -142 -102 -35 -282 -98 -400 -140 -118 -41
-278 -97 -355 -125 -77 -27 -158 -55 -180 -62 -73 -25 -420 -146 -435 -153 -8
-3 -19 -7 -25 -9 -5 -1 -89 -30 -185 -64 -264 -93 -511 -179 -755 -264 -121
-42 -229 -81 -240 -85 -11 -5 -47 -18 -80 -29 -62 -21 -597 -208 -765 -267
-52 -18 -194 -68 -315 -110 -121 -42 -256 -90 -300 -105 -278 -98 -304 -107
-314 -97 -6 6 -13 8 -16 6 -3 -4 -95 -355 -141 -539 -2 -8 -8 -33 -14 -55 -6
-22 -13 -49 -15 -60 -6 -26 -79 -313 -161 -635 -36 -140 -68 -263 -70 -273 -2
-10 -6 -27 -9 -37 -3 -10 -8 -27 -10 -37 -2 -10 -31 -128 -65 -263 -34 -135
-63 -252 -66 -260 -5 -24 -77 -304 -144 -565 -34 -132 -63 -247 -65 -255 -2
-8 -15 -62 -30 -120 -15 -58 -28 -112 -30 -120 -2 -8 -40 -159 -85 -335 -45
-176 -83 -324 -84 -330 -1 -5 -5 -19 -9 -30 -3 -11 -8 -31 -11 -45 -3 -14 -39
-160 -81 -325 -42 -165 -79 -308 -81 -319 -2 -10 -10 -42 -18 -70 -8 -28 -17
-62 -20 -76 -3 -14 -14 -61 -26 -105 -12 -44 -25 -96 -29 -115 -5 -19 -59
-233 -121 -475 -61 -242 -113 -447 -115 -455 -2 -8 -17 -71 -35 -140 -18 -69
-33 -132 -36 -140 -2 -8 -24 -96 -50 -195 -58 -225 -63 -245 -58 -245 4 0 107
38 144 53 14 6 27 11 30 11 7 2 70 26 95 37 11 5 49 19 85 32 67 24 268 100
375 142 33 13 229 87 435 165 206 77 384 145 395 150 11 5 47 19 80 30 33 12
69 25 80 30 11 5 70 28 130 50 61 22 119 45 130 49 45 20 182 71 189 71 5 0
22 6 39 14 62 26 116 47 547 210 239 90 446 169 460 174 14 6 81 32 150 57 69
25 134 50 145 55 11 5 65 25 120 45 141 52 276 104 300 115 11 5 47 18 80 30
33 11 69 25 80 30 11 5 196 74 410 155 215 80 399 150 410 155 22 10 86 34
290 110 77 29 151 57 165 63 14 6 30 11 35 12 6 2 35 13 65 25 30 12 215 82
410 156 195 74 364 138 375 143 11 5 92 36 180 69 88 32 160 63 160 68 1 5 11
31 23 58 12 27 22 62 22 78 0 16 11 75 25 131 14 56 27 111 30 122 7 36 13 61
28 126 40 168 97 409 107 454 7 28 13 57 15 65 2 8 13 53 24 100 11 47 34 144
50 215 50 211 88 372 122 510 33 139 36 155 44 197 3 15 10 40 16 55 6 15 10
29 9 31 -1 1 1 15 4 30 4 15 8 36 10 47 2 11 9 38 14 60 6 22 13 51 16 65 3
14 7 34 10 45 3 11 37 155 75 320 39 165 80 336 91 380 10 44 28 121 40 170
11 50 27 117 35 150 52 218 67 282 71 300 5 24 13 59 18 83 15 60 38 159 41
173 2 9 8 33 14 55 11 42 80 336 87 369 2 11 27 117 55 235 28 118 52 222 54
230 2 8 10 42 19 75 8 33 17 74 20 90 3 17 10 45 15 63 5 18 10 33 10 35 -1 3
6 34 40 177 17 69 33 136 35 150 3 14 15 63 26 110 11 47 28 121 39 165 10 44
40 170 66 280 26 110 48 207 50 215 2 8 9 37 15 63 7 26 11 49 9 51 -2 2 -67
-19 -144 -46z m-5750 -3027 c188 -158 195 -164 209 -176 6 -6 92 -78 191 -160
99 -82 182 -152 185 -155 3 -3 127 -106 275 -230 149 -123 272 -227 275 -230
3 -3 100 -84 215 -180 116 -96 212 -177 215 -180 3 -3 30 -25 60 -50 30 -25
66 -55 80 -67 20 -18 306 -257 844 -707 52 -43 124 -104 166 -139 14 -12 52
-44 85 -72 33 -27 69 -57 80 -67 30 -25 327 -273 618 -516 142 -119 254 -219
250 -222 -5 -4 -35 -17 -68 -29 -33 -12 -69 -26 -80 -31 -18 -8 -1069 -406
-1460 -552 -88 -33 -169 -64 -180 -69 -11 -5 -117 -45 -235 -89 -118 -45 -253
-96 -300 -114 -142 -55 -237 -91 -425 -161 -99 -37 -189 -71 -200 -76 -23 -10
-205 -79 -370 -141 -60 -22 -121 -45 -135 -51 -14 -6 -27 -11 -30 -12 -10 -3
-175 -66 -265 -100 -33 -13 -258 -98 -500 -189 -242 -92 -447 -169 -455 -173
-16 -6 -40 -15 -285 -107 -82 -31 -159 -60 -170 -65 -30 -14 -289 -111 -296
-111 -4 0 22 114 58 252 147 580 174 687 178 704 2 11 38 152 80 314 41 162
77 304 80 315 5 23 76 304 166 655 33 129 62 242 64 250 22 94 234 930 245
965 5 17 12 44 15 60 3 17 14 64 25 105 12 41 23 84 25 95 3 11 14 56 25 100
12 44 23 87 25 95 2 8 13 53 25 100 12 47 24 92 26 100 2 8 15 60 29 115 14
55 28 111 31 125 3 14 14 59 25 100 11 41 22 82 24 90 2 8 56 225 121 481
l118 466 86 -70 c47 -39 153 -127 235 -196z"/>
</g>
</svg>
